<svg xmlns="http://www.w3.org/2000/svg" width="500" height="500" fill="none" viewBox="0 0 500 500"><path fill="#F0D07E" d="M265.113 423.668c-4.214-22.13-8.428-44.787-8.428-67.97-.527-2.108-.527-4.742-1.054-6.85-4.214-25.818-8.428-51.635-13.696-76.927-3.161-14.226-7.375-27.925-13.169-41.098-7.375-16.86-21.071-26.871-41.089-27.398-20.544-.527-38.454 7.376-55.838 17.914-4.214 2.108-7.901 4.742-12.116 7.904-1.58 1.054-3.687 2.634-5.267 4.215-4.741 4.742-9.482 10.011-15.803 16.334V90.143c-.527-8.431-3.161-16.335-9.482-21.604-6.849-5.269-10.536-11.065-10.01-19.495 0-5.269-2.633-8.957-7.374-11.592-7.375-3.16-15.276-1.053-19.49 5.27-3.688 5.795-6.322 12.645-6.849 20.021-.526 28.453 1.58 57.432-4.214 85.358-.527 1.58 0 3.161 0 4.742v205.49c0 20.022 6.321 39.517 5.268 59.539-.527.527 0 1.581 0 2.107 5.268 12.119 10.009 24.765 16.33 36.883 5.268 8.957 19.49 9.484 26.865 1.581 1.58-2.108 3.161-5.269 3.688-8.43 1.053-5.269 0-11.592 1.58-16.334 2.634-7.904 2.634-15.28.527-23.184-2.107-7.376-1.58-15.807-.527-23.71 1.054-10.011 3.16-20.022 5.268-30.56.527-1.054 1.58-2.108 3.16-2.635 14.223-7.903 14.75-7.903 12.643-23.71-.527-4.215-.527-7.903 1.58-11.065 10.536-14.226 21.071-27.925 38.982-32.667 7.901 4.215 13.696 9.484 17.383 16.86 7.375 14.227 14.75 28.453 19.491 43.206 6.321 18.968 11.062 38.463 14.223 57.959 3.687 21.075 15.276 37.936 28.446 53.743 3.687 4.742 10.535 5.269 15.276 1.581 11.589-8.958 16.857-21.076 13.696-35.829ZM357.685 358.333c0-8.958 1.581-17.915-.526-26.345-4.741-16.334-3.161-33.195-3.688-49.529-.526-12.645-1.053-25.291-4.214-37.409-2.634-9.484-7.375-15.807-14.223-21.603-4.741-4.215-10.009-3.688-15.276-1.581-8.429 3.689-10.536 12.119-15.277 17.915-10.008 11.591-11.589 24.764-7.901 37.936 3.687 11.592 3.16 23.711 3.687 35.302.527 8.958-1.053 17.915 1.054 26.345 3.687 11.592 3.16 23.184 3.687 35.302v47.421c0 4.215 0 8.43.527 12.119 2.634 12.118 14.75 16.86 25.285 10.011 4.214-3.162 7.375-6.323 7.375-11.592.527-5.796.527-11.065.527-16.861 0-5.269 2.107-9.484 6.321-12.118 10.535-5.796 13.169-15.28 12.642-26.345v-18.968Zm-52.15-228.674c5.794-2.634 8.428-6.849 11.062-12.118 2.634-6.323 5.268-13.173 7.375-20.022 2.107-6.323 3.687-13.173 4.214-15.807 0-23.184-11.589-32.14-29.499-27.399-2.107.527-4.214 1.58-6.848 1.58-13.17.528-18.964 8.958-23.705 20.023-2.107 4.215-2.107 8.957-.527 13.7 5.268 12.118 17.384 20.548 20.018 34.248.526 1.053 2.107 2.107 3.16 3.688 4.741 4.742 8.955 5.269 14.75 2.107ZM404.939 322.504c8.428 4.215 17.383 2.107 23.705-4.742 2.107-2.108 3.687-5.796 6.321-6.85 8.955-5.269 10.535-13.173 10.535-22.13-.526-30.56-.526-60.593-.526-90.626 0-14.226 1.58-28.452-3.688-42.679-1.58-4.215-.527-9.484-.527-14.226-.526-11.592-.526-23.71-.526-35.829 0-11.592-.527-23.71 3.687-35.302 2.634-6.323 1.054-13.7-2.107-20.549-4.741-8.43-11.062-12.119-21.598-10.011-5.268 1.054-10.535 2.108-16.33 1.58-8.955 0-15.276 4.216-17.91 12.646-1.58 6.323-3.161 12.646-3.161 18.442-.527 14.753 0 28.979 0 43.205v40.571c0 4.742-1.053 10.011.527 14.226 5.268 13.173 3.687 26.345 4.214 40.045.527 17.914-2.107 36.355 4.214 54.27 1.054 2.634 0 6.323.527 9.484 1.581 13.172 3.161 26.345 5.795 39.517.526 3.689 3.687 7.377 6.848 8.958Zm45.302 32.667c-4.741-4.742-10.008-7.903-16.856-7.376-6.848-.527-12.116 1.58-16.33 7.903-3.688 5.796-8.956 11.065-12.643 16.861-7.902 10.538-7.375 19.495 1.58 29.506 13.17 15.807 29.5 14.226 43.196 1.054 13.169-13.173 12.642-33.722 1.053-47.948Z"/></svg>
