<svg width="199" height="80" viewBox="0 0 199 80" fill="none" xmlns="http://www.w3.org/2000/svg">
<path d="M32.2181 30.0041C31.9552 28.6241 31.6924 27.2113 31.6924 25.7656C31.6595 25.6342 31.6595 25.4699 31.6266 25.3385C31.3638 23.7285 31.1009 22.1185 30.7724 20.5414C30.5752 19.6543 30.3124 18.8 29.9509 17.9786C29.491 16.9272 28.6367 16.3029 27.3881 16.27C26.1067 16.2372 24.9896 16.73 23.9053 17.3871C23.6425 17.5186 23.4125 17.6829 23.1496 17.88C23.0511 17.9457 22.9196 18.0443 22.8211 18.1429C22.5253 18.4386 22.2296 18.7671 21.8354 19.1614C21.8354 18.6357 21.8354 18.2414 21.8354 17.8471C21.8354 15.3172 21.8354 12.7872 21.8354 10.2573C21.8354 9.89583 21.8354 9.53441 21.8354 9.20584C21.8025 8.68013 21.6382 8.18729 21.2439 7.85872C20.8168 7.53015 20.5868 7.16873 20.6197 6.64302C20.6197 6.31446 20.4554 6.08446 20.1597 5.92018C19.6997 5.72304 19.2068 5.85447 18.944 6.24874C18.714 6.61017 18.5497 7.0373 18.5168 7.4973C18.484 9.27155 18.6154 11.0787 18.254 12.8201C18.2211 12.9186 18.254 13.0172 18.254 13.1158C18.254 17.3871 18.254 21.6585 18.254 25.9299C18.254 27.1784 18.6483 28.3941 18.5825 29.6427C18.5497 29.6755 18.5825 29.7412 18.5825 29.7741C18.9111 30.5298 19.2068 31.3184 19.6011 32.0741C19.9297 32.6326 20.8168 32.6655 21.2768 32.1726C21.3754 32.0412 21.4739 31.8441 21.5068 31.6469C21.5725 31.3184 21.5068 30.9241 21.6054 30.6284C21.7696 30.1355 21.7696 29.6755 21.6382 29.1827C21.5068 28.7227 21.5396 28.197 21.6054 27.7041C21.6711 27.0799 21.8025 26.4556 21.9339 25.7984C21.9668 25.7327 22.0325 25.667 22.1311 25.6342C23.0182 25.1413 23.0511 25.1413 22.9196 24.1556C22.8868 23.8928 22.8868 23.6628 23.0182 23.4656C23.6753 22.5785 24.3325 21.7242 25.4496 21.4285C25.9424 21.6914 26.3039 22.0199 26.5339 22.4799C26.9939 23.3671 27.4538 24.2542 27.7496 25.1742C28.1438 26.357 28.4395 27.5727 28.6367 28.7884C28.8667 30.1027 29.5895 31.1541 30.4109 32.1398C30.6409 32.4355 31.0681 32.4683 31.3638 32.2384C32.0866 31.6798 32.4152 30.9241 32.2181 30.0041Z" fill="#F0D07E"/>
<path d="M37.9921 25.9299C37.9921 25.3713 38.0907 24.8128 37.9592 24.287C37.6635 23.2685 37.7621 22.2171 37.7292 21.1985C37.6964 20.41 37.6635 19.6214 37.4664 18.8657C37.3021 18.2743 37.0064 17.88 36.5793 17.5186C36.2836 17.2557 35.955 17.2886 35.6264 17.42C35.1007 17.65 34.9693 18.1757 34.6736 18.5371C34.0493 19.26 33.9507 20.0814 34.1807 20.9028C34.4107 21.6257 34.3779 22.3814 34.4107 23.1042C34.4436 23.6628 34.345 24.2213 34.4764 24.747C34.7064 25.4699 34.6736 26.1927 34.7064 26.9484C34.7064 27.9341 34.7064 28.9198 34.7064 29.9055C34.7064 30.1684 34.7064 30.4312 34.7393 30.6612C34.9036 31.4169 35.6593 31.7126 36.3164 31.2855C36.5793 31.0884 36.7764 30.8912 36.7764 30.5627C36.8093 30.2012 36.8093 29.8727 36.8093 29.5113C36.8093 29.1827 36.9407 28.9198 37.2035 28.7555C37.8607 28.3941 38.025 27.8027 37.9921 27.1127C37.9921 26.7184 37.9921 26.3242 37.9921 25.9299ZM34.7393 11.6701C35.1007 11.5058 35.265 11.243 35.4293 10.9144C35.5936 10.5201 35.7578 10.093 35.8893 9.66584C36.0207 9.27155 36.1193 8.84442 36.1521 8.68013C36.1521 7.23444 35.4293 6.67588 34.3122 6.97159C34.1807 7.00445 34.0493 7.07016 33.885 7.07016C33.0636 7.10302 32.7022 7.62872 32.4065 8.31871C32.275 8.58157 32.275 8.87728 32.3736 9.17299C32.7022 9.92869 33.4579 10.4544 33.6222 11.3087C33.655 11.3744 33.7536 11.4401 33.8193 11.5387C34.115 11.8344 34.3779 11.8672 34.7393 11.6701Z" fill="#F0D07E"/>
<path d="M40.9394 23.6956C41.4652 23.9585 42.0237 23.8271 42.418 23.3999C42.5494 23.2685 42.648 23.0385 42.8123 22.9728C43.3708 22.6442 43.4694 22.1514 43.4694 21.5928C43.4366 19.6871 43.4366 17.8143 43.4366 15.9415C43.4366 15.0543 43.5351 14.1672 43.2066 13.2801C43.108 13.0172 43.1737 12.6886 43.1737 12.3929C43.1408 11.6701 43.1408 10.9144 43.1408 10.1587C43.1408 9.43584 43.108 8.68013 43.3708 7.95729C43.5351 7.56301 43.4366 7.10302 43.2394 6.67588C42.9437 6.15018 42.5494 5.92018 41.8923 6.0516C41.5637 6.11732 41.2352 6.18303 40.8737 6.15018C40.3152 6.15018 39.9209 6.41303 39.7566 6.93873C39.658 7.33301 39.5595 7.72729 39.5595 8.08871C39.5266 9.0087 39.5595 9.89583 39.5595 10.783C39.5595 11.6044 39.5595 12.4587 39.5595 13.3129C39.5595 13.6086 39.4938 13.9372 39.5923 14.2001C39.9209 15.0215 39.8223 15.8429 39.8552 16.6972C39.888 17.8143 39.7237 18.9643 40.118 20.0814C40.1837 20.2457 40.118 20.4757 40.1509 20.6728C40.2495 21.4942 40.348 22.3156 40.5123 23.1371C40.5452 23.3671 40.7423 23.5971 40.9394 23.6956ZM43.7651 25.7327C43.4694 25.437 43.1408 25.2399 42.7137 25.2727C42.2866 25.2399 41.958 25.3713 41.6951 25.7656C41.4652 26.127 41.1366 26.4556 40.9066 26.817C40.4137 27.4741 40.4466 28.0327 41.0052 28.657C41.8266 29.6427 42.8451 29.5441 43.6994 28.7227C44.5208 27.9013 44.488 26.6199 43.7651 25.7327Z" fill="#F0D07E"/>
<path d="M61.7362 25.9299C61.7362 25.3713 61.8347 24.8128 61.7033 24.287C61.4076 23.2685 61.5062 22.2171 61.4733 21.1985C61.4404 20.41 61.4076 19.6214 61.2105 18.8657C61.0462 18.2743 60.7505 17.88 60.3233 17.5186C60.0276 17.2557 59.699 17.2886 59.3705 17.42C58.8448 17.65 58.7133 18.1757 58.4176 18.5371C57.7934 19.26 57.6948 20.0814 57.9248 20.9028C58.1548 21.6257 58.1219 22.3814 58.1548 23.1042C58.1876 23.6628 58.0891 24.2213 58.2205 24.747C58.4505 25.4699 58.4176 26.1927 58.4505 26.9484C58.4505 27.9341 58.4505 28.9198 58.4505 29.9055C58.4505 30.1684 58.4505 30.4312 58.4834 30.6612C58.6476 31.4169 59.4033 31.7126 60.0605 31.2855C60.3233 31.0884 60.5205 30.8912 60.5205 30.5627C60.5533 30.2012 60.5533 29.8727 60.5533 29.5113C60.5533 29.1827 60.6847 28.9198 60.9476 28.7555C61.6047 28.3941 61.769 27.8027 61.7362 27.1127C61.7362 26.7184 61.7362 26.3242 61.7362 25.9299ZM58.4834 11.6701C58.8448 11.5058 59.0091 11.243 59.1733 10.9144C59.3376 10.5201 59.5019 10.093 59.6333 9.66584C59.7648 9.27155 59.8633 8.84442 59.8962 8.68013C59.8962 7.23444 59.1733 6.67588 58.0562 6.97159C57.9248 7.00445 57.7934 7.07016 57.6291 7.07016C56.8077 7.10302 56.4462 7.62872 56.1505 8.31871C56.0191 8.58157 56.0191 8.87728 56.1177 9.17299C56.4462 9.92869 57.2019 10.4544 57.3662 11.3087C57.3991 11.3744 57.4977 11.4401 57.5634 11.5387C57.8591 11.8344 58.1219 11.8672 58.4834 11.6701Z" fill="#F0D07E"/>
<path d="M64.7223 5.16447C64.8208 5.59161 65.0508 5.92018 65.3794 6.11732C66.0037 6.54445 66.7594 6.18303 66.8251 5.46018C66.8579 4.90162 66.8908 4.37592 66.6608 3.85021C66.4637 3.3245 66.4308 2.73308 66.6608 2.24023C66.9237 1.5831 66.6279 1.05739 66.4637 0.49883C66.3651 0.20312 66.1022 0.0388366 65.7737 0.00598033C65.4123 -0.0268759 65.0837 0.0716948 64.8537 0.400261C64.6237 0.761683 64.4266 1.15596 64.4266 1.64881C64.4594 1.97738 64.4266 2.3388 64.4266 2.76594C64.328 3.5545 64.558 4.34306 64.7223 5.16447Z" fill="#F0D07E"/>
<path d="M84.9389 24.8456C84.7089 24.0242 84.5446 23.2028 84.3803 22.3814C84.1503 21.2642 83.9203 20.1471 83.296 19.1614C82.6389 18.1429 81.8503 17.2886 80.6346 16.8943C79.0904 16.4014 77.8418 16.8286 76.9218 18.2086C76.4618 18.8986 76.0347 19.6214 75.6076 20.3442C75.5419 20.3114 75.4104 20.2785 75.3776 20.2128C74.8519 19.2271 74.129 18.5371 72.9133 18.6686C72.7819 18.6686 72.5848 18.4386 72.5519 18.3071C72.4862 18.0114 72.4862 17.7157 72.4862 17.42C72.4205 16.2372 72.6176 15.0215 72.2562 13.8715C72.1905 13.6415 72.2891 13.3786 72.3219 13.1486C72.4205 12.2287 72.2233 11.473 71.3033 10.9801C70.9091 11.1772 70.5148 11.3744 70.1205 11.5387C69.6277 11.7687 69.4634 12.1301 69.4962 12.6229C69.4962 14.2329 69.4962 15.81 69.4962 17.3871C69.4962 17.6829 69.4305 18.0114 69.5291 18.2743C69.8905 19.2928 69.7591 20.3442 69.7591 21.3957C69.7919 22.7756 69.7919 24.1556 69.7919 25.5685C69.7919 25.8642 69.7919 26.1599 69.8248 26.4556C69.9234 26.9484 70.4819 27.3756 71.0076 27.3756C71.4676 27.3756 71.8948 27.047 71.8948 26.3899C71.9276 25.9956 71.8291 25.6013 72.1248 25.2399C72.5519 24.747 72.7162 24.1228 72.9462 23.5313C73.0119 23.3013 73.1762 23.0713 73.3076 22.8742C73.3405 22.8085 73.4719 22.7756 73.5705 22.7756C73.6362 22.7756 73.7676 22.8742 73.8005 22.9399C73.8662 23.1699 73.899 23.3999 73.9647 23.6299C74.0633 24.0242 74.129 24.4185 74.3262 24.7799C74.589 25.3385 75.3119 25.4699 75.8376 25.0427C76.1333 24.8128 76.3961 24.4842 76.6261 24.1885C77.0204 23.6299 77.4475 23.0713 77.7761 22.4471C78.1375 21.7899 78.6961 21.2971 79.2547 20.8042C79.5832 20.4757 79.9775 20.4757 80.3061 20.7714C80.7003 21.0999 81.0289 21.4285 81.1603 21.9542C81.3903 22.8742 81.7518 23.7285 81.9489 24.6485C82.1789 25.5685 82.836 25.9627 83.6246 26.1599C84.3803 26.357 85.1031 25.6013 84.9389 24.8456Z" fill="#F0D07E"/>
<path d="M109.115 74.2875C108.993 74.2875 108.871 74.2469 108.749 74.2469C108.261 74.2875 107.773 74.2875 107.284 74.328C107.04 74.328 106.837 74.2875 106.633 74.3686C105.901 74.612 105.087 74.4092 104.355 74.6932C103.5 74.6932 102.646 74.896 101.791 75.0583C99.7568 75.4235 97.7223 75.9509 95.7285 76.5595C94.7113 76.9247 93.6534 77.2898 92.6361 77.7767C92.1885 77.9796 91.7409 78.2636 91.2933 78.5476C91.0085 78.7505 90.8051 78.9939 90.683 79.359C90.683 79.4402 90.6423 79.5213 90.683 79.6025C90.7644 79.8459 91.2933 80.0894 91.5375 79.9676C91.7002 79.8459 91.863 79.7242 92.0258 79.6025C92.1478 79.4808 92.2292 79.359 92.392 79.2779C92.9616 78.9939 93.5313 78.6693 94.1416 78.4259C95.403 77.9796 96.7051 77.5738 98.0072 77.2087C99.1058 76.9247 100.245 76.6407 101.384 76.3972C102.524 76.1944 103.663 75.9509 104.843 75.8698C105.738 75.7886 106.633 75.5858 107.569 75.6264C108.098 75.6264 108.627 75.4641 109.115 75.3423C109.4 75.2612 109.522 75.0989 109.522 74.8149C109.522 74.4903 109.441 74.3686 109.115 74.2875Z" fill="#F0D07E"/>
<path d="M6.20008 54.1368C6.1099 54.2063 6.0352 54.275 5.9605 54.3438C5.5533 54.6234 5.14611 54.903 4.75576 55.2147C3.88488 55.9075 3.01264 56.5676 2.14312 57.2932C1.60201 57.7097 1.06499 58.2245 0.525238 58.6738C0.466021 58.7419 0.406805 58.8101 0.348949 58.911C0.336185 58.9772 0.310658 59.1096 0.328863 59.1745C0.341105 59.4695 0.522314 59.7247 0.642107 59.6212C0.792869 59.5164 0.94227 59.3789 1.09303 59.2741C1.43693 58.9643 1.76534 58.6552 2.11195 58.4109C2.74325 57.925 3.37182 57.3736 4.01996 56.9198C4.6681 56.4661 5.31351 55.9468 5.96029 55.4602C6.48728 55.0772 7.01562 54.7269 7.52576 54.3117C7.79632 54.1034 8.07367 54.0591 8.35647 54.1459C8.54636 54.2365 8.74902 54.2609 8.95031 54.2526C9.30645 54.2378 9.67075 54.4197 10.041 54.3715C10.2336 54.5277 10.4322 54.4537 10.6349 54.4782C10.6968 54.4756 10.7756 54.5052 10.8389 54.5354C10.9331 54.5643 11.0274 54.5932 11.1203 54.5894C11.43 54.5765 11.7337 54.7938 12.0407 54.7154C12.0562 54.7147 12.0885 54.7462 12.104 54.7456C12.2292 54.7732 12.3403 54.8343 12.4487 54.8298C12.5585 54.858 12.6682 54.8863 12.778 54.9146C12.9651 54.9397 13.1159 54.8349 13.2107 54.5026C13.2799 54.3027 13.2212 54.0096 13.1101 53.9486C13.0468 53.9184 12.9849 53.9209 12.9384 53.9229C12.8287 53.8946 12.7371 53.9312 12.6415 53.8695C12.5136 53.7763 12.3742 53.7821 12.2349 53.7879C12.1729 53.7905 12.1096 53.7603 12.0477 53.7628C11.9379 53.7345 11.8127 53.7069 11.7029 53.6786C11.6242 53.6491 11.5326 53.6857 11.4538 53.6561C11.2781 53.5321 11.1077 53.5391 10.9374 53.5462C10.86 53.5494 10.7826 53.5526 10.7193 53.5224C10.5745 53.3971 10.421 53.4363 10.2662 53.4427C10.1874 53.4132 10.0958 53.4498 10.0157 53.3875C9.8554 53.2628 9.6878 53.3354 9.53159 53.309C9.4232 53.3135 9.31618 53.3508 9.20234 53.2242C9.23059 53.1573 9.25884 53.0905 9.28981 53.0892C9.83364 52.7383 10.3775 52.3874 10.9354 52.003C11.0115 51.967 11.1003 51.8648 11.1905 51.7954C11.2652 51.7267 11.3062 51.5936 11.298 51.3969C11.2872 51.1347 11.2521 51.0376 11.1396 50.9438C11.0595 50.8815 10.9976 50.884 10.937 50.9194C10.5749 51.1643 10.2255 51.3429 9.87893 51.5872C9.35059 51.9375 8.8236 52.3205 8.3121 52.7029C7.73866 53.0879 7.73866 53.0879 7.1193 53.1136C6.97994 53.1194 6.85606 53.1245 6.73219 53.1297C6.65477 53.1329 6.59147 53.1027 6.51269 53.0731C6.4043 53.0776 6.27771 53.0172 6.16932 53.0217C5.39374 53.0211 4.62089 53.086 3.84668 53.1181C3.75378 53.1219 3.64402 53.0937 3.56932 53.1624C3.44953 53.2659 3.31017 53.2717 3.1863 53.2768C2.44306 53.3077 1.69981 53.3385 0.972053 53.3687C0.879148 53.3726 0.800366 53.343 0.724305 53.379C0.648245 53.415 0.573544 53.4838 0.498843 53.5525C0.410019 53.6547 0.429063 54.1136 0.510565 54.2088C0.559738 54.2724 0.623035 54.3026 0.669488 54.3007C0.994657 54.2872 1.30434 54.2743 1.62951 54.2608C1.7379 54.2563 1.86449 54.3168 1.97288 54.3123C2.09812 54.3399 2.22335 54.3675 2.32902 54.2975C2.45018 54.2268 2.57405 54.2216 2.69792 54.2165C3.76634 54.1722 4.83475 54.1278 5.90316 54.0835C5.99607 54.0796 6.08897 54.0758 6.18188 54.0719C6.18188 54.0719 6.19872 54.1041 6.20008 54.1368Z" fill="#F0D07E"/>
<path d="M190.897 53.9654C190.794 54.0397 190.708 54.1138 190.622 54.1879C190.159 54.4857 189.695 54.7834 189.249 55.1176C188.253 55.8603 187.258 56.5663 186.263 57.3456C185.645 57.7914 185.028 58.3471 184.41 58.8295C184.342 58.9034 184.274 58.9774 184.206 59.0879C184.189 59.1613 184.156 59.3081 184.174 59.3811C184.177 59.7106 184.371 60.0015 184.508 59.8902C184.68 59.7786 184.851 59.6303 185.023 59.5187C185.417 59.1851 185.794 58.8516 186.189 58.5912C186.91 58.0711 187.63 57.4777 188.369 56.994C189.107 56.5103 189.845 55.9534 190.584 55.4331C191.185 55.0241 191.786 54.6517 192.369 54.2062C192.678 53.9833 192.989 53.9435 193.302 54.05C193.51 54.1577 193.735 54.1919 193.96 54.1896C194.358 54.1854 194.758 54.4009 195.173 54.3599C195.382 54.5408 195.606 54.4652 195.831 54.4995C195.9 54.4987 195.987 54.5344 196.057 54.5703C196.161 54.6059 196.265 54.6414 196.369 54.6403C196.715 54.6367 197.046 54.8895 197.391 54.8126C197.408 54.8125 197.443 54.8487 197.461 54.8485C197.599 54.8837 197.721 54.9556 197.842 54.9544C197.964 54.9897 198.085 55.025 198.207 55.0604C198.414 55.0948 198.586 54.9832 198.703 54.6158C198.788 54.3953 198.732 54.0663 198.61 53.9944C198.541 53.9585 198.472 53.9592 198.42 53.9598C198.298 53.9244 198.195 53.9621 198.091 53.89C197.951 53.7816 197.795 53.7833 197.64 53.7849C197.571 53.7856 197.501 53.7497 197.432 53.7505C197.31 53.7151 197.172 53.68 197.05 53.6446C196.963 53.6089 196.86 53.6466 196.773 53.6109C196.581 53.4665 196.391 53.4685 196.201 53.4705C196.115 53.4714 196.028 53.4723 195.959 53.4364C195.801 53.2916 195.629 53.33 195.456 53.3318C195.369 53.2961 195.266 53.3338 195.178 53.2615C195.004 53.1169 194.815 53.1921 194.641 53.1573C194.52 53.1586 194.4 53.1965 194.277 53.0513C194.311 52.9777 194.345 52.9041 194.379 52.9038C194.998 52.5312 195.617 52.1586 196.252 51.7492C196.338 51.7117 196.441 51.6008 196.544 51.5265C196.63 51.4523 196.68 51.3054 196.678 51.0857C196.675 50.7929 196.639 50.6834 196.517 50.5748C196.429 50.5025 196.36 50.5033 196.291 50.5406C195.879 50.8012 195.483 50.9884 195.088 51.2488C194.487 51.6212 193.886 52.0303 193.302 52.4391C192.649 52.8487 192.649 52.8487 191.957 52.8559C191.802 52.8576 191.663 52.859 191.525 52.8605C191.439 52.8614 191.369 52.8255 191.282 52.7898C191.161 52.7911 191.022 52.7193 190.901 52.7206C190.036 52.693 189.172 52.7387 188.307 52.7477C188.203 52.7488 188.082 52.7135 187.996 52.7876C187.859 52.8989 187.703 52.9005 187.565 52.902C186.735 52.9107 185.905 52.9194 185.092 52.9279C184.988 52.929 184.902 52.8933 184.816 52.9308C184.729 52.9683 184.644 53.0424 184.558 53.1165C184.455 53.2274 184.461 53.7399 184.548 53.8489C184.601 53.9215 184.671 53.9574 184.722 53.9569C185.086 53.9531 185.431 53.9494 185.795 53.9456C185.916 53.9444 186.055 54.0161 186.176 54.0149C186.315 54.05 186.453 54.0852 186.574 54.0107C186.711 53.936 186.849 53.9346 186.988 53.9331C188.181 53.9206 189.374 53.9081 190.567 53.8956C190.671 53.8945 190.775 53.8934 190.879 53.8924C190.879 53.8924 190.896 53.9288 190.897 53.9654Z" fill="#F0D07E"/>
<path d="M19.4817 53.3841C19.4817 51.7295 19.7675 50.1651 20.3391 48.691C20.9107 47.2169 21.738 45.9233 22.821 44.8102C23.904 43.6971 25.2126 42.8096 26.7469 42.1478C28.2812 41.4859 30.011 41.155 31.9364 41.155C34.5236 41.155 36.7197 41.7116 38.5247 42.8247C40.3598 43.9378 41.7286 45.3968 42.6311 47.2019L36.7197 49.0069C36.2083 48.1345 35.5314 47.4726 34.689 47.0214C33.8467 46.54 32.9141 46.2994 31.8912 46.2994C31.0188 46.2994 30.2066 46.4799 29.4545 46.8409C28.7024 47.1718 28.0405 47.6531 27.4689 48.2849C26.9274 48.8866 26.4912 49.6236 26.1603 50.496C25.8594 51.3685 25.709 52.3312 25.709 53.3841C25.709 54.437 25.8745 55.3997 26.2054 56.2721C26.5363 57.1446 26.9725 57.8966 27.5141 58.5284C28.0856 59.1602 28.7475 59.6565 29.4996 60.0176C30.2517 60.3485 31.0489 60.5139 31.8912 60.5139C32.9743 60.5139 33.967 60.2432 34.8695 59.7017C35.8021 59.1602 36.4489 58.4983 36.8099 57.7161L42.7214 59.5212C41.9091 61.3262 40.5704 62.8003 38.7052 63.9435C36.84 65.0867 34.5988 65.6583 31.9815 65.6583C30.0561 65.6583 28.3263 65.3273 26.792 64.6655C25.2578 64.0037 23.9491 63.1162 22.8661 62.0031C21.7831 60.8599 20.9408 59.5513 20.3391 58.0772C19.7675 56.573 19.4817 55.0086 19.4817 53.3841Z" fill="white"/>
<path d="M57.1422 65.6583C55.2169 65.6583 53.487 65.3273 51.9528 64.6655C50.4185 64.0037 49.1099 63.1162 48.0268 62.0031C46.9739 60.8599 46.1616 59.5513 45.5901 58.0772C45.0185 56.603 44.7327 55.0537 44.7327 53.4292C44.7327 51.7746 45.0185 50.2102 45.5901 48.7361C46.1616 47.262 46.9739 45.9684 48.0268 44.8553C49.1099 43.7122 50.4185 42.8096 51.9528 42.1478C53.487 41.4859 55.2169 41.155 57.1422 41.155C59.0676 41.155 60.7824 41.4859 62.2865 42.1478C63.8208 42.8096 65.1144 43.7122 66.1674 44.8553C67.2504 45.9684 68.0777 47.262 68.6493 48.7361C69.2209 50.2102 69.5067 51.7746 69.5067 53.4292C69.5067 55.0537 69.2209 56.603 68.6493 58.0772C68.0777 59.5513 67.2654 60.8599 66.2125 62.0031C65.1595 63.1162 63.8659 64.0037 62.3317 64.6655C60.7974 65.3273 59.0676 65.6583 57.1422 65.6583ZM50.96 53.4292C50.96 54.4821 51.1104 55.4448 51.4113 56.3172C51.7422 57.1596 52.1784 57.8966 52.7199 58.5284C53.2915 59.1602 53.9533 59.6565 54.7054 60.0176C55.4575 60.3485 56.2698 60.5139 57.1422 60.5139C58.0147 60.5139 58.8269 60.3485 59.579 60.0176C60.3311 59.6565 60.9779 59.1602 61.5194 58.5284C62.091 57.8966 62.5272 57.1446 62.8281 56.2721C63.159 55.3997 63.3244 54.437 63.3244 53.3841C63.3244 52.3612 63.159 51.4136 62.8281 50.5412C62.5272 49.6687 62.091 48.9166 61.5194 48.2849C60.9779 47.6531 60.3311 47.1718 59.579 46.8409C58.8269 46.4799 58.0147 46.2994 57.1422 46.2994C56.2698 46.2994 55.4575 46.4799 54.7054 46.8409C53.9533 47.2019 53.2915 47.6983 52.7199 48.33C52.1784 48.9618 51.7422 49.7139 51.4113 50.5863C51.1104 51.4587 50.96 52.4064 50.96 53.4292Z" fill="white"/>
<path d="M95.5643 65.207H89.5174V51.9401C89.5174 50.0448 89.1865 48.6609 88.5247 47.7885C87.8628 46.9161 86.9453 46.4799 85.772 46.4799C85.1703 46.4799 84.5536 46.6002 83.9218 46.8409C83.2901 47.0815 82.6884 47.4275 82.1168 47.8788C81.5753 48.2999 81.0789 48.8113 80.6277 49.413C80.1764 50.0147 79.8455 50.6765 79.6349 51.3986V65.207H73.5881V41.5612H79.0483V45.9383C79.9207 44.4342 81.1842 43.2609 82.8388 42.4185C84.4934 41.5762 86.3586 41.155 88.4344 41.155C89.9085 41.155 91.1119 41.4258 92.0444 41.9673C92.9771 42.5088 93.6991 43.2158 94.2105 44.0882C94.7219 44.9606 95.0679 45.9534 95.2484 47.0665C95.459 48.1796 95.5643 49.3077 95.5643 50.4509V65.207Z" fill="white"/>
<path d="M100.19 61.4616C100.19 61.1908 100.205 60.9201 100.235 60.6493C100.266 60.3786 100.311 60.0928 100.371 59.7919L103.259 46.2091H100.326L101.318 41.5612H104.207L105.831 33.8898H111.878L110.253 41.5612H114.992L113.999 46.2091H109.306L106.824 57.7613C106.794 57.8816 106.764 58.0019 106.734 58.1223C106.734 58.2426 106.734 58.3629 106.734 58.4833C106.734 59.0549 106.899 59.461 107.23 59.7017C107.561 59.9423 107.967 60.0627 108.448 60.0627C108.839 60.0627 109.231 60.0176 109.622 59.9273C110.043 59.8371 110.434 59.7167 110.795 59.5663C111.156 59.4159 111.472 59.2955 111.743 59.2053L111.923 63.9886C111.321 64.2594 110.644 64.5301 109.892 64.8009C109.14 65.0415 108.358 65.2371 107.546 65.3875C106.734 65.5379 105.921 65.6131 105.109 65.6131C103.695 65.6131 102.522 65.2973 101.589 64.6655C100.657 64.0037 100.19 62.9357 100.19 61.4616Z" fill="white"/>
<path d="M125.018 65.6583C123.032 65.6583 121.303 65.2371 119.828 64.3947C118.384 63.5223 117.271 62.334 116.489 60.8298C115.737 59.2955 115.361 57.5657 115.361 55.6404C115.361 53.6849 115.737 51.8348 116.489 50.0899C117.241 48.3451 118.294 46.8108 119.648 45.4871C121.002 44.1333 122.581 43.0804 124.386 42.3283C126.191 41.5461 128.147 41.155 130.252 41.155C131.967 41.155 133.456 41.4107 134.72 41.9222C135.983 42.4336 136.961 43.1857 137.653 44.1784C138.345 45.1411 138.691 46.3294 138.691 47.7434C138.691 50.2403 137.548 52.1356 135.261 53.4292C133.005 54.7228 129.606 55.3696 125.063 55.3696C124.161 55.3696 123.183 55.3546 122.13 55.3245C121.077 55.2643 119.934 55.1741 118.7 55.0537L119.467 51.2632C120.55 51.3534 121.543 51.4286 122.446 51.4888C123.348 51.5189 124.236 51.5339 125.108 51.5339C127.064 51.5339 128.598 51.3986 129.711 51.1278C130.854 50.857 131.681 50.466 132.193 49.9545C132.704 49.4431 132.96 48.8414 132.96 48.1495C132.96 47.5478 132.81 47.0665 132.509 46.7055C132.208 46.3144 131.787 46.0286 131.245 45.8481C130.734 45.6375 130.117 45.5322 129.395 45.5322C128.222 45.5322 127.139 45.818 126.146 46.3896C125.183 46.9311 124.341 47.6832 123.619 48.6459C122.897 49.6086 122.34 50.7066 121.949 51.9401C121.558 53.1735 121.363 54.4821 121.363 55.866C121.363 56.8888 121.528 57.8214 121.859 58.6638C122.22 59.476 122.747 60.1078 123.439 60.5591C124.13 61.0103 125.018 61.2359 126.101 61.2359C127.304 61.2359 128.432 60.9502 129.485 60.3786C130.568 59.807 131.426 59.0097 132.058 57.9869L136.841 59.476C136.059 60.6794 135.036 61.7474 133.772 62.68C132.509 63.6126 131.125 64.3496 129.621 64.8911C128.117 65.4025 126.582 65.6583 125.018 65.6583Z" fill="white"/>
<path d="M144.322 41.5612H149.782L148.834 45.9383C149.617 44.9155 150.519 44.0581 151.542 43.3662C152.595 42.6442 153.723 42.1027 154.926 41.7417C156.16 41.3506 157.423 41.155 158.717 41.155C160.101 41.155 161.169 41.3957 161.921 41.877C162.673 42.3584 163.199 43.0202 163.5 43.8626C163.831 44.6748 163.997 45.5924 163.997 46.6152C163.997 47.247 163.951 47.8787 163.861 48.5105C163.771 49.1423 163.666 49.7891 163.545 50.4509L160.432 65.207H154.385L157.183 51.9401C157.303 51.4888 157.378 51.0676 157.408 50.6765C157.468 50.2855 157.499 49.9094 157.499 49.5484C157.499 48.4955 157.258 47.7283 156.777 47.247C156.325 46.7356 155.709 46.4799 154.926 46.4799C154.204 46.4799 153.422 46.6904 152.58 47.1116C151.737 47.5328 150.94 48.1194 150.188 48.8715C149.436 49.5935 148.804 50.4359 148.293 51.3986L145.36 65.207H139.313L144.322 41.5612Z" fill="white"/>
<path d="M167.57 61.4616C167.57 61.1908 167.585 60.9201 167.615 60.6493C167.646 60.3786 167.691 60.0928 167.751 59.7919L170.639 46.2091H167.706L168.698 41.5612H171.587L173.211 33.8898H179.258L177.633 41.5612H182.372L181.379 46.2091H176.686L174.204 57.7613C174.174 57.8816 174.144 58.0019 174.114 58.1223C174.114 58.2426 174.114 58.3629 174.114 58.4833C174.114 59.0549 174.279 59.461 174.61 59.7017C174.941 59.9423 175.347 60.0627 175.828 60.0627C176.219 60.0627 176.611 60.0176 177.002 59.9273C177.423 59.8371 177.814 59.7167 178.175 59.5663C178.536 59.4159 178.852 59.2955 179.122 59.2053L179.303 63.9886C178.701 64.2594 178.024 64.5301 177.272 64.8009C176.52 65.0415 175.738 65.2371 174.926 65.3875C174.114 65.5379 173.301 65.6131 172.489 65.6131C171.075 65.6131 169.902 65.2973 168.969 64.6655C168.037 64.0037 167.57 62.9357 167.57 61.4616Z" fill="white"/>
</svg>
