<svg width="104" height="66" viewBox="0 0 104 66" fill="none" xmlns="http://www.w3.org/2000/svg">
<path d="M31.5634 52.2305C32.4263 52.4634 33.4617 52.7429 34.3246 52.9758C37.1493 53.8307 39.8932 54.2935 42.7924 54.5205C43.7645 54.6903 44.8633 55.0795 45.8815 55.0765C51.3979 55.547 56.943 55.5624 62.3726 54.6209C66.9108 53.9016 71.4316 52.8999 75.2845 50.2368C75.8309 49.9213 76.2679 49.669 76.8143 49.3536C78.4073 48.58 79.9197 47.4144 81.0869 46.1557C83.6399 43.512 85.4392 40.5723 86.4675 37.0542C87.5704 32.9083 87.8277 28.8118 87.1128 24.5455C86.5706 20.3259 85.4186 16.3119 83.22 12.7561C81.7638 10.2339 80.3075 7.7116 78.8513 5.18934C78.598 4.75068 78.2815 4.20237 78.0282 3.76371C77.7576 3.04265 78.3152 1.98965 78.9881 1.89354C79.7703 1.73436 80.6159 1.68484 81.105 2.27973C82.0834 3.46953 83.2802 4.53315 83.9307 5.9122C84.8171 7.44749 85.6402 8.87312 86.5266 10.4084C87.223 11.6147 87.9655 12.6483 88.2248 14.1069C88.1963 14.5621 88.5588 14.9376 88.812 15.3763C89.9057 17.523 90.3898 19.8754 90.8739 22.2279C91.5713 26.2117 91.8144 30.1655 91.2119 34.1688C90.684 37.5442 89.5117 40.5605 87.8849 43.5468C87.3274 44.5998 86.488 45.6693 85.9304 46.7223C84.5794 48.672 82.7566 50.3093 80.7438 51.6176C78.0295 53.4771 75.1426 55.2901 71.9218 56.2723C68.2006 57.3973 64.4794 58.5222 60.5968 58.8629C54.9772 59.4755 49.3229 59.5232 43.6798 58.8334C41.8621 58.7131 40.1363 58.2473 38.3645 57.9543C36.8746 57.6447 35.4306 57.1624 33.8948 57.0256C32.704 56.982 31.496 56.6559 30.5064 56.2037C28.9818 55.3294 27.3193 54.9732 25.5935 54.5075C24.1495 54.0252 22.487 53.6691 21.0257 52.9043C20.1454 52.389 19.064 52.2823 18.0745 51.8301C17.9652 51.8932 17.9652 51.8932 17.7467 52.0194C18.8516 53.4285 19.7839 54.791 20.9348 56.0274C22.195 57.2007 22.9088 58.6894 23.6686 60.0054C24.0485 60.6633 24.0372 61.4009 23.6175 61.9357C23.0886 62.5335 22.3696 62.8024 21.5701 62.6791C20.8797 62.4928 20.3446 62.0707 19.8095 61.6485C17.3525 59.4116 14.677 57.3009 12.22 55.064C10.1888 53.3123 8.15769 51.5606 7.52964 48.7064C7.13853 48.786 6.6841 48.7559 6.33894 48.6628C4.99301 48.855 3.69304 48.8744 2.2838 48.957C1.20235 48.8502 0.586573 48.036 0.862287 46.9995C1.02874 46.0261 1.38513 45.3817 2.51252 45.3157C3.18548 45.2196 3.96772 45.0604 4.74994 44.9012C5.59549 44.8517 6.37772 44.6925 6.95265 43.9219C7.57352 42.9786 8.59165 42.9756 9.58118 43.4278C9.81708 43.5841 10.1622 43.6772 10.3981 43.8335C10.9332 44.2556 11.5603 44.3323 12.2159 43.9538C13.8722 43.2899 15.5633 43.1909 17.2544 43.0918C20.0729 42.9268 22.7995 43.1072 25.5434 43.57C27.7063 43.7835 29.9325 44.1066 32.0494 44.4928C33.476 44.6926 34.5288 45.2545 35.5991 46.0988C36.1342 46.521 36.4681 47.3517 36.221 47.933C35.8186 48.7502 35.307 49.6304 34.1796 49.6965C32.7071 49.6693 31.2978 49.7519 29.8253 49.7248C28.1801 49.651 26.535 49.5773 24.8899 49.5036C27.0129 50.9098 29.2105 51.6881 31.5634 52.2305Z" fill="#292929"/>
</svg>
