<svg xmlns="http://www.w3.org/2000/svg" width="199" height="80" fill="none" viewBox="0 0 199 80"><path fill="#F0D07E" d="M32.218 30.004c-.263-1.38-.526-2.793-.526-4.238-.032-.132-.032-.296-.065-.427-.263-1.61-.526-3.22-.855-4.798a13.71 13.71 0 0 0-.821-2.562c-.46-1.052-1.314-1.676-2.563-1.709-1.281-.033-2.398.46-3.483 1.117a4.95 4.95 0 0 0-.755.493c-.099.066-.23.164-.329.263-.296.296-.591.624-.986 1.018V9.206c-.033-.526-.197-1.019-.591-1.347-.427-.329-.657-.69-.624-1.216 0-.329-.165-.559-.46-.723-.46-.197-.953-.066-1.216.329-.23.361-.394.788-.427 1.248-.033 1.775.098 3.582-.263 5.323-.033.099 0 .197 0 .296V25.93c0 1.248.394 2.464.328 3.713-.032.032 0 .098 0 .131.33.756.625 1.544 1.02 2.3.328.559 1.215.592 1.675.099.098-.132.197-.329.23-.526.066-.329 0-.723.098-1.019a2.4 2.4 0 0 0 .033-1.445c-.131-.46-.098-.986-.033-1.479.066-.624.197-1.248.329-1.906a.336.336 0 0 1 .197-.164c.887-.493.92-.493.789-1.478-.033-.263-.033-.493.098-.69.657-.888 1.314-1.742 2.432-2.038.492.263.854.592 1.084 1.052.46.887.92 1.774 1.216 2.694.394 1.183.69 2.399.887 3.614.23 1.315.953 2.366 1.774 3.352.23.295.657.328.953.098.723-.558 1.051-1.314.854-2.234Zm5.774-4.074c0-.559.099-1.117-.033-1.643-.296-1.018-.197-2.07-.23-3.088-.033-.789-.066-1.578-.263-2.333-.164-.592-.46-.986-.887-1.347-.295-.263-.624-.23-.953-.099-.525.23-.657.756-.952 1.117-.625.723-.723 1.544-.493 2.366.23.723.197 1.478.23 2.201.033.559-.066 1.117.065 1.643.23.723.198 1.446.23 2.201v2.957c0 .263 0 .526.033.756.165.756.92 1.052 1.577.624.263-.197.46-.394.46-.722.033-.362.033-.69.033-1.052 0-.328.132-.591.395-.755.657-.362.821-.953.788-1.643V25.93ZM34.74 11.67c.362-.164.526-.427.69-.756.165-.394.329-.821.46-1.248.132-.394.23-.822.263-.986 0-1.446-.723-2.004-1.84-1.708-.131.032-.263.098-.427.098-.821.033-1.183.559-1.478 1.249-.132.263-.132.558-.033.854.328.756 1.084 1.281 1.248 2.136.033.065.132.131.197.23.296.295.559.328.92.131Zm6.2 12.026c.525.262 1.084.131 1.478-.296.131-.131.23-.361.394-.427.559-.329.657-.822.657-1.38-.032-1.906-.032-3.779-.032-5.652 0-.887.098-1.774-.23-2.66-.099-.264-.033-.592-.033-.888-.033-.723-.033-1.479-.033-2.234 0-.723-.033-1.479.23-2.202.164-.394.066-.854-.132-1.281-.295-.526-.69-.756-1.347-.624-.328.065-.657.131-1.018.098-.559 0-.953.263-1.117.789-.099.394-.197.788-.197 1.15-.033.92 0 1.807 0 2.694v2.53c0 .296-.066.624.032.887.329.822.23 1.643.263 2.497.033 1.117-.131 2.267.263 3.384.066.165 0 .395.033.592.098.821.197 1.643.361 2.464.033.23.23.46.427.559Zm2.825 2.037c-.296-.296-.624-.493-1.051-.46-.427-.033-.756.098-1.019.493-.23.361-.558.69-.788 1.051-.493.657-.46 1.216.098 1.84.822.986 1.84.887 2.694.066.822-.822.789-2.103.066-2.99Zm17.971.197c0-.559.099-1.117-.033-1.643-.295-1.018-.197-2.07-.23-3.088-.033-.789-.065-1.578-.262-2.333-.165-.592-.46-.986-.888-1.347-.295-.263-.624-.23-.953-.099-.525.23-.657.756-.952 1.117-.625.723-.723 1.544-.493 2.366.23.723.197 1.478.23 2.201.033.559-.066 1.117.066 1.643.23.723.197 1.446.23 2.201v2.957c0 .263 0 .526.032.756.165.756.92 1.052 1.578.624.262-.197.46-.394.46-.722.032-.362.032-.69.032-1.052 0-.328.132-.591.395-.755.657-.362.821-.953.788-1.643V25.93Zm-3.253-14.26c.362-.164.526-.427.69-.756.165-.394.329-.821.46-1.248.132-.394.23-.822.263-.986 0-1.446-.723-2.004-1.84-1.708-.131.032-.263.098-.427.098-.821.033-1.183.559-1.478 1.249-.132.263-.132.558-.033.854.328.756 1.084 1.281 1.248 2.136.033.065.132.131.197.23.296.295.559.328.92.131Zm6.239-6.506c.099.428.329.756.657.953.625.427 1.38.066 1.446-.657.033-.558.066-1.084-.164-1.61-.197-.526-.23-1.117 0-1.61.263-.657-.033-1.183-.197-1.741-.099-.296-.362-.46-.69-.493-.362-.033-.69.066-.92.394-.23.362-.427.756-.427 1.249.032.328 0 .69 0 1.117-.099.788.131 1.577.295 2.398Zm20.217 19.682c-.23-.822-.394-1.643-.559-2.465-.23-1.117-.46-2.234-1.084-3.22-.657-1.018-1.446-1.872-2.661-2.267-1.545-.493-2.793-.065-3.713 1.315-.46.69-.887 1.412-1.314 2.135-.066-.033-.198-.066-.23-.131-.526-.986-1.249-1.676-2.465-1.544-.131 0-.328-.23-.361-.362-.066-.296-.066-.591-.066-.887-.066-1.183.132-2.399-.23-3.549-.066-.23.033-.492.066-.722.099-.92-.099-1.676-1.019-2.169-.394.197-.788.394-1.182.559-.493.23-.658.591-.625 1.084v4.764c0 .296-.066.624.033.887.362 1.019.23 2.07.23 3.122.033 1.38.033 2.76.033 4.172 0 .296 0 .592.033.888.098.492.657.92 1.183.92.46 0 .887-.329.887-.986.033-.394-.066-.789.23-1.15.427-.493.591-1.117.821-1.709.066-.23.23-.46.362-.657.032-.066.164-.098.262-.098.066 0 .198.098.23.164.066.23.099.46.165.69.098.394.164.789.361 1.15.263.558.986.69 1.512.263.295-.23.558-.559.788-.854.394-.56.822-1.118 1.15-1.742.362-.657.92-1.15 1.479-1.643.328-.328.723-.328 1.051-.033.394.329.723.657.854 1.183.23.92.592 1.774.789 2.694.23.92.887 1.315 1.676 1.512.755.197 1.478-.559 1.314-1.314Zm24.176 49.441c-.122 0-.244-.04-.366-.04-.488.04-.976.04-1.465.081-.244 0-.447-.04-.651.04-.732.244-1.546.041-2.278.325-.855 0-1.709.203-2.564.365-2.034.365-4.069.893-6.063 1.501-1.017.366-2.075.73-3.092 1.218-.447.203-.895.487-1.343.77a1.552 1.552 0 0 0-.61.812c0 .081-.04.162 0 .244.081.243.61.486.854.365l.489-.365c.122-.122.203-.244.366-.325.57-.284 1.14-.609 1.75-.852a61.068 61.068 0 0 1 3.865-1.217 82.36 82.36 0 0 1 3.377-.812c1.14-.203 2.279-.446 3.459-.527.895-.081 1.79-.284 2.726-.244.529 0 1.058-.162 1.546-.284.285-.08.407-.243.407-.527 0-.325-.081-.446-.407-.528ZM6.2 54.137c-.09.07-.165.138-.24.207-.407.28-.814.559-1.204.87-.871.694-1.743 1.354-2.613 2.08-.541.416-1.078.93-1.618 1.38-.059.068-.118.136-.176.237-.013.066-.038.199-.02.264.012.294.193.55.313.446.15-.105.3-.242.451-.347.344-.31.672-.619 1.019-.863.631-.486 1.26-1.037 1.908-1.491.648-.454 1.294-.973 1.94-1.46.527-.383 1.056-.733 1.566-1.148.27-.209.548-.253.83-.166.19.09.393.115.594.107.356-.015.72.167 1.091.118.193.157.391.083.594.107a.485.485 0 0 1 .204.057.864.864 0 0 0 .281.054c.31-.012.614.205.92.126.016 0 .049.031.064.03.125.028.236.09.345.085l.329.085c.187.025.338-.08.433-.412.069-.2.01-.493-.1-.554a.345.345 0 0 0-.173-.026c-.11-.028-.2.008-.296-.053-.128-.094-.268-.088-.407-.082-.062.003-.125-.028-.187-.025-.11-.029-.235-.056-.345-.084-.079-.03-.17.007-.25-.023-.175-.124-.345-.117-.516-.11-.077.003-.154.007-.218-.024-.144-.125-.298-.086-.453-.08-.079-.029-.17.008-.25-.054-.16-.125-.328-.053-.484-.079-.109.005-.216.042-.33-.085.029-.067.057-.133.088-.135.544-.35 1.088-.702 1.645-1.086.076-.036.165-.138.255-.208.075-.068.116-.201.108-.398-.01-.262-.046-.36-.158-.453-.08-.063-.142-.06-.203-.025-.362.245-.711.424-1.058.668-.528.35-1.055.733-1.567 1.116-.573.385-.573.385-1.193.41l-.387.017c-.077.003-.14-.027-.22-.057-.108.005-.234-.056-.343-.051-.775 0-1.548.064-2.322.096-.093.004-.203-.024-.278.044-.12.104-.259.11-.383.115l-2.214.092c-.093.004-.172-.026-.248.01-.076.036-.15.105-.225.174-.089.102-.07.56.012.656.049.063.112.094.158.092l.96-.04c.109-.005.235.056.344.051.125.028.25.056.356-.014.121-.071.245-.076.369-.081 1.068-.045 2.137-.09 3.205-.133l.279-.012s.017.032.018.065Zm184.697-.172a3.957 3.957 0 0 0-.275.223c-.463.298-.927.595-1.373.93-.996.742-1.991 1.448-2.986 2.228-.618.445-1.235 1.001-1.853 1.484a1.59 1.59 0 0 0-.204.258c-.017.073-.05.22-.032.293.003.33.197.62.334.51.172-.112.343-.26.515-.372.394-.334.771-.667 1.166-.928.721-.52 1.441-1.113 2.18-1.597.738-.484 1.476-1.04 2.215-1.56.601-.41 1.202-.782 1.785-1.228.309-.223.62-.263.933-.156.208.108.433.142.658.14.398-.005.798.21 1.213.17.209.18.433.105.658.14a.538.538 0 0 1 .226.07.958.958 0 0 0 .312.07c.346-.003.677.25 1.022.173.017 0 .052.036.07.035.138.036.26.108.381.106l.365.106c.207.035.379-.077.496-.444.085-.22.029-.55-.093-.622a.381.381 0 0 0-.19-.034c-.122-.036-.225.002-.329-.07-.14-.108-.296-.107-.451-.105-.069 0-.139-.035-.208-.034-.122-.036-.26-.071-.382-.106-.087-.036-.19.002-.277-.034-.192-.144-.382-.142-.572-.14a.52.52 0 0 1-.242-.035c-.158-.144-.33-.106-.503-.104-.087-.036-.19.002-.278-.07-.174-.145-.363-.07-.537-.105-.121.002-.241.04-.364-.106.034-.073.068-.147.102-.147.619-.373 1.238-.745 1.873-1.155.086-.037.189-.148.292-.223.086-.074.136-.22.134-.44-.003-.293-.039-.403-.161-.511-.088-.073-.157-.072-.226-.034-.412.26-.808.447-1.203.708-.601.372-1.202.781-1.786 1.19-.653.41-.653.41-1.345.417l-.432.005c-.086 0-.156-.035-.243-.071-.121.001-.26-.07-.381-.07-.865-.027-1.729.019-2.594.028-.104 0-.225-.034-.311.04-.137.11-.293.113-.431.114l-2.473.026c-.104.001-.19-.035-.276.003a1.077 1.077 0 0 0-.258.186c-.103.11-.097.623-.01.732.053.073.123.108.174.108l1.073-.011c.121-.002.26.07.381.069.139.035.277.07.398-.004.137-.075.275-.076.414-.078l3.579-.037.312-.004s.017.037.018.073Z"/><path fill="#fff" d="M19.482 53.384c0-1.654.285-3.219.857-4.693a11.429 11.429 0 0 1 2.482-3.88c1.083-1.114 2.392-2.001 3.926-2.663 1.534-.662 3.264-.993 5.19-.993 2.587 0 4.783.557 6.588 1.67 1.835 1.113 3.204 2.572 4.106 4.377l-5.911 1.805c-.512-.872-1.189-1.534-2.031-1.986-.842-.481-1.775-.722-2.798-.722-.872 0-1.684.18-2.436.542a5.814 5.814 0 0 0-1.986 1.444c-.542.602-.978 1.339-1.309 2.211-.3.872-.451 1.835-.451 2.888s.166 2.016.496 2.888c.331.873.768 1.625 1.31 2.256a6.38 6.38 0 0 0 1.985 1.49c.752.33 1.549.496 2.391.496a5.68 5.68 0 0 0 2.979-.812c.932-.542 1.579-1.204 1.94-1.986l5.911 1.805c-.812 1.805-2.15 3.28-4.016 4.422-1.865 1.144-4.106 1.715-6.723 1.715-1.926 0-3.656-.33-5.19-.993-1.534-.661-2.843-1.549-3.926-2.662a12.556 12.556 0 0 1-2.527-3.926 13.102 13.102 0 0 1-.857-4.693Zm37.66 12.274c-1.925 0-3.655-.33-5.19-.993-1.533-.661-2.842-1.549-3.925-2.662a12.305 12.305 0 0 1-2.437-3.926 12.744 12.744 0 0 1-.857-4.648c0-1.654.286-3.219.857-4.693a11.784 11.784 0 0 1 2.437-3.88c1.083-1.144 2.392-2.046 3.926-2.708 1.534-.662 3.264-.993 5.19-.993 1.925 0 3.64.33 5.143.993 1.535.662 2.828 1.564 3.881 2.707a11.429 11.429 0 0 1 2.482 3.881 12.86 12.86 0 0 1 .858 4.693c0 1.625-.286 3.174-.858 4.648a12.307 12.307 0 0 1-2.436 3.926c-1.053 1.113-2.347 2-3.881 2.662-1.535.662-3.264.993-5.19.993ZM50.96 53.43c0 1.053.15 2.016.451 2.888a7.65 7.65 0 0 0 1.309 2.211 6.381 6.381 0 0 0 1.985 1.49c.753.33 1.565.496 2.437.496.873 0 1.685-.166 2.437-.496a5.88 5.88 0 0 0 1.94-1.49 6.453 6.453 0 0 0 1.31-2.256c.33-.872.495-1.835.495-2.888 0-1.023-.165-1.97-.496-2.843a6.453 6.453 0 0 0-1.309-2.256 5.38 5.38 0 0 0-1.94-1.444 5.558 5.558 0 0 0-2.437-.542 5.55 5.55 0 0 0-2.437.542 6.381 6.381 0 0 0-1.985 1.489c-.542.632-.978 1.384-1.309 2.256a8.69 8.69 0 0 0-.451 2.843Zm44.604 11.777h-6.047V51.94c0-1.895-.33-3.28-.992-4.151-.662-.873-1.58-1.31-2.753-1.31-.602 0-1.218.121-1.85.362a6.834 6.834 0 0 0-1.805 1.038 8.027 8.027 0 0 0-1.49 1.534 6.154 6.154 0 0 0-.992 1.986v13.808h-6.047V41.561h5.46v4.377c.873-1.504 2.136-2.677 3.79-3.52 1.655-.842 3.52-1.263 5.596-1.263 1.475 0 2.678.27 3.61.812.933.542 1.655 1.249 2.166 2.121.512.873.858 1.865 1.038 2.978.211 1.114.316 2.242.316 3.385v14.756Zm4.626-3.745c0-.271.015-.542.045-.813.031-.27.076-.556.136-.857l2.888-13.583h-2.933l.992-4.648h2.889l1.624-7.671h6.047l-1.625 7.671h4.739l-.993 4.648h-4.693l-2.482 11.552-.09.361v.361c0 .572.165.978.496 1.219.331.24.737.36 1.218.36.391 0 .783-.044 1.174-.135.421-.09.812-.21 1.173-.36.361-.151.677-.272.948-.362l.18 4.784c-.602.27-1.279.541-2.031.812-.752.24-1.534.436-2.346.587a13.36 13.36 0 0 1-2.437.225c-1.414 0-2.587-.316-3.52-.948-.932-.661-1.399-1.73-1.399-3.203Zm24.828 4.196c-1.986 0-3.715-.42-5.19-1.263a8.862 8.862 0 0 1-3.339-3.565c-.752-1.535-1.128-3.264-1.128-5.19 0-1.955.376-3.805 1.128-5.55a14.279 14.279 0 0 1 3.159-4.603 14.537 14.537 0 0 1 4.738-3.159c1.805-.782 3.761-1.173 5.866-1.173 1.715 0 3.204.256 4.468.767 1.263.512 2.241 1.264 2.933 2.256.692.963 1.038 2.151 1.038 3.565 0 2.497-1.143 4.393-3.43 5.686-2.256 1.294-5.655 1.94-10.198 1.94-.902 0-1.88-.014-2.933-.044a86.088 86.088 0 0 1-3.43-.271l.767-3.79c1.083.09 2.076.165 2.979.225.902.03 1.79.045 2.662.045 1.956 0 3.49-.135 4.603-.406 1.143-.271 1.97-.662 2.482-1.173.511-.512.767-1.114.767-1.805 0-.602-.15-1.084-.451-1.444-.301-.392-.722-.677-1.264-.858-.511-.21-1.128-.316-1.85-.316a6.4 6.4 0 0 0-3.249.858c-.963.541-1.805 1.293-2.527 2.256a10.96 10.96 0 0 0-1.67 3.294 12.916 12.916 0 0 0-.586 3.926c0 1.023.165 1.955.496 2.798.361.812.888 1.444 1.58 1.895.691.451 1.579.677 2.662.677a6.985 6.985 0 0 0 3.384-.857 6.572 6.572 0 0 0 2.573-2.392l4.783 1.489c-.782 1.203-1.805 2.271-3.069 3.204a16.167 16.167 0 0 1-4.151 2.211 14.21 14.21 0 0 1-4.603.767Zm19.304-24.097h5.46l-.948 4.377a11.55 11.55 0 0 1 2.708-2.572 12.105 12.105 0 0 1 3.384-1.624 12.471 12.471 0 0 1 3.791-.587c1.384 0 2.452.24 3.204.722a3.822 3.822 0 0 1 1.579 1.986c.331.812.497 1.73.497 2.752 0 .632-.046 1.264-.136 1.895a49.98 49.98 0 0 1-.316 1.94l-3.113 14.757h-6.047l2.798-13.267c.12-.451.195-.872.225-1.264.06-.39.091-.767.091-1.128 0-1.053-.241-1.82-.722-2.301-.452-.511-1.068-.767-1.851-.767-.722 0-1.504.21-2.346.632-.843.42-1.64 1.007-2.392 1.76a9.924 9.924 0 0 0-1.895 2.527l-2.933 13.808h-6.047l5.009-23.646Zm23.248 19.901c0-.271.015-.542.045-.813.031-.27.076-.556.136-.857l2.888-13.583h-2.933l.992-4.648h2.889l1.624-7.671h6.047l-1.625 7.671h4.739l-.993 4.648h-4.693l-2.482 11.552-.09.361v.361c0 .572.165.978.496 1.219.331.24.737.36 1.218.36.391 0 .783-.044 1.174-.135.421-.09.812-.21 1.173-.36.361-.151.677-.272.947-.362l.181 4.784c-.602.27-1.279.541-2.031.812-.752.24-1.534.436-2.346.587a13.36 13.36 0 0 1-2.437.225c-1.414 0-2.587-.316-3.52-.948-.932-.661-1.399-1.73-1.399-3.203Z"/></svg>
