<svg xmlns="http://www.w3.org/2000/svg" width="217" height="34" fill="none" viewBox="0 0 217 34"><path fill="#F0D07E" d="M13.88 30.632c-.256-1.344-.512-2.72-.512-4.128-.032-.128-.032-.288-.064-.416-.256-1.568-.512-3.136-.832-4.672a13.354 13.354 0 0 0-.8-2.496c-.448-1.024-1.28-1.632-2.496-1.664-1.248-.032-2.336.448-3.392 1.088-.256.128-.48.288-.736.48-.096.064-.224.16-.32.256-.288.288-.576.608-.96.992V10.376c-.032-.512-.192-.992-.576-1.312-.416-.32-.64-.672-.608-1.184 0-.32-.16-.544-.448-.704-.448-.192-.928-.064-1.184.32a2.627 2.627 0 0 0-.416 1.216C.504 10.44.632 12.2.28 13.896c-.032.096 0 .192 0 .288v12.48c0 1.216.384 2.4.32 3.616-.032.032 0 .096 0 .128.32.736.608 1.504.992 2.24.32.544 1.184.576 1.632.096.096-.128.192-.32.224-.512.064-.32 0-.704.096-.992.16-.48.16-.928.032-1.408-.128-.448-.096-.96-.032-1.44.064-.608.192-1.216.32-1.856a.328.328 0 0 1 .192-.16c.864-.48.896-.48.768-1.44-.032-.256-.032-.48.096-.672.64-.864 1.28-1.696 2.368-1.984.48.256.832.576 1.056 1.024.448.864.896 1.728 1.184 2.624.384 1.152.672 2.336.864 3.52.224 1.28.928 2.304 1.728 3.264.224.288.64.32.928.096.704-.544 1.024-1.28.832-2.176ZM19.503 26.664c0-.544.096-1.088-.032-1.6-.288-.992-.192-2.016-.224-3.008-.032-.768-.064-1.536-.256-2.272-.16-.576-.447-.96-.863-1.312-.288-.256-.608-.224-.928-.096-.512.224-.64.736-.928 1.088-.608.704-.704 1.504-.48 2.304.223.704.191 1.44.223 2.144.032.544-.064 1.088.064 1.6.224.704.192 1.408.224 2.144v2.88c0 .256 0 .512.032.736.16.736.896 1.024 1.537.608.256-.192.448-.384.448-.704.032-.352.032-.672.032-1.024 0-.32.128-.576.383-.736.64-.352.8-.928.768-1.6v-1.152Zm-3.168-13.888c.352-.16.512-.416.672-.736.16-.384.32-.8.448-1.216.129-.384.225-.8.257-.96 0-1.408-.704-1.952-1.793-1.664-.128.032-.255.096-.415.096-.8.032-1.152.544-1.44 1.216-.129.256-.129.544-.033.832.32.736 1.056 1.248 1.216 2.08.033.064.129.128.193.224.287.288.543.32.896.128ZM22.374 24.488c.512.256 1.056.128 1.44-.288.128-.128.224-.352.384-.416.544-.32.64-.8.64-1.344-.032-1.856-.032-3.68-.032-5.504 0-.864.096-1.728-.224-2.592-.096-.256-.032-.576-.032-.864-.032-.704-.032-1.44-.032-2.176 0-.704-.032-1.44.224-2.144.16-.384.064-.832-.128-1.248-.288-.512-.672-.736-1.312-.608-.32.064-.64.128-.992.096-.544 0-.928.256-1.088.768-.096.384-.192.768-.192 1.12-.032.896 0 1.76 0 2.624v2.464c0 .288-.064.608.032.864.32.8.224 1.6.256 2.432.032 1.088-.128 2.208.256 3.296.064.16 0 .384.032.576.096.8.192 1.6.352 2.4.032.224.224.448.416.544Zm2.752 1.984c-.288-.288-.608-.48-1.024-.448-.416-.032-.736.096-.992.48-.224.352-.544.672-.768 1.024-.48.64-.448 1.184.096 1.792.8.96 1.792.864 2.624.064.8-.8.768-2.048.064-2.912ZM41.691 26.664c0-.544.096-1.088-.032-1.6-.288-.992-.192-2.016-.224-3.008-.032-.768-.064-1.536-.256-2.272-.16-.576-.448-.96-.864-1.312-.288-.256-.608-.224-.928-.096-.512.224-.64.736-.928 1.088-.608.704-.704 1.504-.48 2.304.224.704.192 1.44.224 2.144.032.544-.064 1.088.064 1.6.224.704.192 1.408.224 2.144v2.88c0 .256 0 .512.032.736.16.736.896 1.024 1.536.608.256-.192.448-.384.448-.704.032-.352.032-.672.032-1.024 0-.32.128-.576.384-.736.64-.352.8-.928.768-1.6v-1.152Zm-3.168-13.888c.352-.16.512-.416.672-.736.16-.384.32-.8.448-1.216.128-.384.224-.8.256-.96 0-1.408-.704-1.952-1.792-1.664-.128.032-.256.096-.416.096-.8.032-1.152.544-1.44 1.216-.128.256-.128.544-.032.832.32.736 1.056 1.248 1.216 2.08.032.064.128.128.192.224.288.288.544.32.896.128ZM44.6 5.96c.095.416.32.736.64.928.607.416 1.343.064 1.407-.64.032-.544.064-1.056-.16-1.568-.192-.512-.224-1.088 0-1.568.256-.64-.032-1.152-.192-1.696-.096-.288-.352-.448-.672-.48-.352-.032-.672.064-.896.384-.224.352-.416.736-.416 1.216.032.32 0 .672 0 1.088-.096.768.128 1.536.288 2.336ZM64.289 25.608c-.224-.8-.384-1.6-.544-2.4-.224-1.088-.448-2.176-1.056-3.136-.64-.992-1.408-1.824-2.592-2.208-1.504-.48-2.72-.064-3.616 1.28-.448.672-.864 1.376-1.28 2.08-.064-.032-.192-.064-.224-.128-.512-.96-1.216-1.632-2.4-1.504-.128 0-.32-.224-.352-.352-.064-.288-.064-.576-.064-.864-.064-1.152.128-2.336-.224-3.456-.064-.224.032-.48.064-.704.096-.896-.096-1.632-.992-2.112-.384.192-.768.384-1.152.544-.48.224-.64.576-.608 1.056v4.64c0 .288-.064.608.032.864.352.992.224 2.016.224 3.04.032 1.344.032 2.688.032 4.064 0 .288 0 .576.032.864.096.48.64.896 1.152.896.448 0 .864-.32.864-.96.032-.384-.064-.768.224-1.12.416-.48.576-1.088.8-1.664.064-.224.224-.448.352-.64.032-.064.16-.096.256-.096.064 0 .192.096.224.16.064.224.096.448.16.672.096.384.16.768.352 1.12.256.544.96.672 1.472.256.288-.224.544-.544.768-.832.384-.544.8-1.088 1.12-1.696.352-.64.896-1.12 1.44-1.6.32-.32.704-.32 1.024-.032.384.32.704.64.832 1.152.224.896.576 1.728.768 2.624.224.896.864 1.28 1.632 1.472.736.192 1.44-.544 1.28-1.28ZM74.315 21.664c0-1.027.178-1.997.532-2.912a7.092 7.092 0 0 1 1.54-2.408 7.496 7.496 0 0 1 2.436-1.652c.952-.41 2.026-.616 3.22-.616 1.606 0 2.968.345 4.088 1.036 1.139.69 1.988 1.596 2.548 2.716l-3.668 1.12a3.194 3.194 0 0 0-1.26-1.232 3.436 3.436 0 0 0-1.736-.448c-.541 0-1.045.112-1.512.336a3.608 3.608 0 0 0-1.232.896c-.336.373-.606.83-.812 1.372a5.47 5.47 0 0 0-.28 1.792c0 .653.103 1.25.308 1.792.206.541.476 1.008.812 1.4.355.392.766.7 1.232.924.467.205.962.308 1.484.308.672 0 1.288-.168 1.848-.504.579-.336.98-.747 1.204-1.232l3.668 1.12c-.504 1.12-1.334 2.035-2.492 2.744-1.157.71-2.548 1.064-4.172 1.064-1.194 0-2.268-.205-3.22-.616a7.496 7.496 0 0 1-2.436-1.652 7.79 7.79 0 0 1-1.568-2.436 8.131 8.131 0 0 1-.532-2.912ZM97.683 29.28c-1.195 0-2.268-.205-3.22-.616a7.496 7.496 0 0 1-2.436-1.652 7.637 7.637 0 0 1-1.512-2.436 7.907 7.907 0 0 1-.532-2.884c0-1.027.177-1.997.532-2.912a7.314 7.314 0 0 1 1.512-2.408 7.285 7.285 0 0 1 2.436-1.68c.952-.41 2.026-.616 3.22-.616 1.195 0 2.259.205 3.192.616.952.41 1.755.97 2.408 1.68a7.081 7.081 0 0 1 1.54 2.408c.355.915.532 1.885.532 2.912a7.9 7.9 0 0 1-.532 2.884 7.612 7.612 0 0 1-1.512 2.436c-.653.69-1.456 1.241-2.408 1.652-.952.41-2.025.616-3.22.616Zm-3.836-7.588c0 .653.094 1.25.28 1.792.206.523.476.98.812 1.372.355.392.766.7 1.232.924.467.205.97.308 1.512.308.541 0 1.045-.103 1.512-.308a3.646 3.646 0 0 0 1.204-.924c.355-.392.626-.859.812-1.4a5.001 5.001 0 0 0 .308-1.792 4.92 4.92 0 0 0-.308-1.764 3.989 3.989 0 0 0-.812-1.4 3.338 3.338 0 0 0-1.204-.896 3.449 3.449 0 0 0-1.512-.336c-.541 0-1.045.112-1.512.336a3.959 3.959 0 0 0-1.232.924 4.676 4.676 0 0 0-.812 1.4 5.376 5.376 0 0 0-.28 1.764ZM121.524 29h-3.752v-8.232c0-1.176-.206-2.035-.616-2.576-.411-.541-.98-.812-1.708-.812-.374 0-.756.075-1.148.224a4.23 4.23 0 0 0-1.12.644 4.983 4.983 0 0 0-.924.952c-.28.373-.486.784-.616 1.232V29h-3.752V14.328h3.388v2.716c.541-.933 1.325-1.661 2.352-2.184 1.026-.523 2.184-.784 3.472-.784.914 0 1.661.168 2.24.504a3.65 3.65 0 0 1 1.344 1.316 5.3 5.3 0 0 1 .644 1.848c.13.69.196 1.39.196 2.1V29ZM124.394 26.676c0-.168.009-.336.028-.504.019-.168.047-.345.084-.532l1.792-8.428h-1.82l.616-2.884h1.792l1.008-4.76h3.752l-1.008 4.76h2.94l-.616 2.884h-2.912l-1.54 7.168-.056.224v.224c0 .355.103.607.308.756.205.15.457.224.756.224.243 0 .485-.028.728-.084.261-.056.504-.13.728-.224.224-.093.42-.168.588-.224l.112 2.968a17.55 17.55 0 0 1-1.26.504c-.467.15-.952.27-1.456.364a8.29 8.29 0 0 1-1.512.14c-.877 0-1.605-.196-2.184-.588-.579-.41-.868-1.073-.868-1.988ZM139.799 29.28c-1.232 0-2.305-.261-3.22-.784a5.505 5.505 0 0 1-2.072-2.212c-.466-.952-.7-2.025-.7-3.22a8.62 8.62 0 0 1 .7-3.444 8.867 8.867 0 0 1 1.96-2.856 9.02 9.02 0 0 1 2.94-1.96c1.12-.485 2.334-.728 3.64-.728 1.064 0 1.988.159 2.772.476.784.317 1.391.784 1.82 1.4.43.597.644 1.335.644 2.212 0 1.55-.709 2.725-2.128 3.528-1.4.803-3.509 1.204-6.328 1.204-.56 0-1.166-.01-1.82-.028a53.416 53.416 0 0 1-2.128-.168l.476-2.352c.672.056 1.288.103 1.848.14.56.019 1.111.028 1.652.028 1.214 0 2.166-.084 2.856-.252.71-.168 1.223-.41 1.54-.728a1.53 1.53 0 0 0 .476-1.12c0-.373-.093-.672-.28-.896-.186-.243-.448-.42-.784-.532-.317-.13-.7-.196-1.148-.196-.728 0-1.4.177-2.016.532a5.06 5.06 0 0 0-1.568 1.4 6.81 6.81 0 0 0-1.036 2.044 8.033 8.033 0 0 0-.364 2.436c0 .635.103 1.213.308 1.736.224.504.551.896.98 1.176.43.28.98.42 1.652.42.747 0 1.447-.177 2.1-.532a4.075 4.075 0 0 0 1.596-1.484l2.968.924a7.663 7.663 0 0 1-1.904 1.988 10.026 10.026 0 0 1-2.576 1.372 8.813 8.813 0 0 1-2.856.476ZM151.777 14.328h3.388l-.588 2.716a7.181 7.181 0 0 1 1.68-1.596 7.527 7.527 0 0 1 2.1-1.008 7.742 7.742 0 0 1 2.352-.364c.859 0 1.522.15 1.988.448.467.299.794.71.98 1.232.206.504.308 1.073.308 1.708 0 .392-.028.784-.084 1.176-.056.392-.121.793-.196 1.204L161.773 29h-3.752l1.736-8.232c.075-.28.122-.541.14-.784.038-.243.056-.476.056-.7 0-.653-.149-1.13-.448-1.428-.28-.317-.662-.476-1.148-.476-.448 0-.933.13-1.456.392a5.746 5.746 0 0 0-1.484 1.092c-.466.448-.858.97-1.176 1.568L152.421 29h-3.752l3.108-14.672ZM166.203 26.676c0-.168.009-.336.028-.504a5.74 5.74 0 0 1 .084-.532l1.792-8.428h-1.82l.616-2.884h1.792l1.008-4.76h3.752l-1.008 4.76h2.94l-.616 2.884h-2.912l-1.54 7.168-.056.224v.224c0 .355.102.607.308.756.205.15.457.224.756.224.242 0 .485-.028.728-.084.261-.056.504-.13.728-.224.224-.093.42-.168.588-.224l.112 2.968c-.374.168-.794.336-1.26.504-.467.15-.952.27-1.456.364a8.29 8.29 0 0 1-1.512.14c-.878 0-1.606-.196-2.184-.588-.579-.41-.868-1.073-.868-1.988ZM199.705 17.224a3.54 3.54 0 0 1-.576 1.952 4.416 4.416 0 0 1-1.504 1.44 3.802 3.802 0 0 1-1.952.544c-.747 0-1.365-.267-1.856-.8-.469-.533-.704-1.184-.704-1.952 0-.704.192-1.355.576-1.952a4.416 4.416 0 0 1 1.504-1.44c.619-.363 1.259-.544 1.92-.544.768 0 1.387.277 1.856.832.491.533.736 1.173.736 1.92Z"/></svg>
